<?xml version="1.0" encoding="UTF-8" standalone="no"?>
<!-- Created with Inkscape (http://www.inkscape.org/) -->

<svg
   width="240"
   height="40"
   viewBox="0 0 63.499998 10.583333"
   version="1.1"
   id="svg5"
   inkscape:version="1.2 (1:1.2+202206011327+fc4e4096c5)"
   sodipodi:docname="arrows.svg"
   xml:space="preserve"
   xmlns:inkscape="http://www.inkscape.org/namespaces/inkscape"
   xmlns:sodipodi="http://sodipodi.sourceforge.net/DTD/sodipodi-0.dtd"
   xmlns="http://www.w3.org/2000/svg"
   xmlns:svg="http://www.w3.org/2000/svg"><sodipodi:namedview
     id="namedview7"
     pagecolor="#ffffff"
     bordercolor="#999999"
     borderopacity="1"
     inkscape:showpageshadow="0"
     inkscape:pageopacity="0"
     inkscape:pagecheckerboard="true"
     inkscape:deskcolor="#d1d1d1"
     inkscape:document-units="mm"
     showgrid="false"
     inkscape:zoom="4.7607183"
     inkscape:cx="136.21894"
     inkscape:cy="32.663138"
     inkscape:window-width="1600"
     inkscape:window-height="845"
     inkscape:window-x="0"
     inkscape:window-y="0"
     inkscape:window-maximized="1"
     inkscape:current-layer="layer1" /><defs
     id="defs2" /><g
     inkscape:label="Warstwa 1"
     inkscape:groupmode="layer"
     id="layer1"><path
       id="circle8147"
       style="fill:#24a3c4;fill-rule:evenodd;stroke-width:2.28426"
       d="M 5.2916667,0 A 5.2916665,5.2916665 0 0 0 0,5.2916667 5.2916665,5.2916665 0 0 0 5.2916667,10.583333 5.2916665,5.2916665 0 0 0 10.583333,5.2916667 5.2916665,5.2916665 0 0 0 5.2916667,0 Z M 3.076298,2.372465 c 0.175139,-0.00198 0.3477684,0.06303 0.4764567,0.1927531 L 6.8393758,5.8513224 6.7892497,3.3486328 c 0.00847,-0.3749062 0.318074,-0.6840053 0.6929809,-0.6924642 0.3749067,-0.00847 0.6756109,0.2922374 0.6671428,0.6671428 l 0.059428,4.1961263 c 0.00847,0.1757996 -0.067059,0.3502504 -0.2005046,0.4836914 l -0.00723,0.00775 C 7.8676207,8.1443242 7.7011307,8.2108683 7.5168538,8.2108683 L 3.328479,8.1442057 C 2.9525383,8.1537116 2.6603034,7.8614762 2.6603027,7.4780965 2.6687757,7.1031885 2.9778601,6.7940923 3.3527669,6.7856323 L 5.8637248,6.8435099 2.5688354,3.5491374 C 2.3019531,3.2822539 2.3105328,2.8560773 2.5858887,2.580721 2.7235662,2.4430458 2.901159,2.3744472 3.076298,2.372465 Z" /><path
       id="circle8147-3"
       style="fill:#e8ac4e;fill-opacity:1;fill-rule:evenodd;stroke-width:2.28426"
       d="M 15.875,0 A 5.2916665,5.2916665 0 0 0 10.583333,5.291667 5.2916665,5.2916665 0 0 0 15.875,10.583333 5.2916665,5.2916665 0 0 0 21.166666,5.291667 5.2916665,5.2916665 0 0 0 15.875,0 Z m -2.215369,2.372465 c 0.175139,-0.002 0.347768,0.06303 0.476457,0.192753 l 3.286621,3.286104 -0.05013,-2.502689 c 0.0085,-0.374906 0.318074,-0.684006 0.692981,-0.692464 0.374907,-0.0085 0.675611,0.292237 0.667143,0.667142 l 0.05943,4.196127 c 0.0085,0.175799 -0.06706,0.35025 -0.200505,0.483691 l -0.0072,0.0077 C 18.450982,8.144274 18.284492,8.210818 18.100215,8.210818 L 13.91184,8.144158 c -0.375941,0.0095 -0.668176,-0.28273 -0.668176,-0.66611 0.0085,-0.374908 0.317557,-0.684004 0.692464,-0.692464 l 2.510958,0.05788 -3.29489,-3.294373 c -0.26691,-0.266837 -0.25833,-0.693014 0.01703,-0.96837 0.137677,-0.137675 0.31527,-0.206274 0.490409,-0.208256 z" /><path
       id="circle8147-3-6"
       style="fill:#496d89;fill-opacity:1;fill-rule:evenodd;stroke-width:2.28426"
       d="M 26.458334,0 A 5.2916665,5.2916665 0 0 0 21.166667,5.291667 5.2916665,5.2916665 0 0 0 26.458334,10.583333 5.2916665,5.2916665 0 0 0 31.75,5.291667 5.2916665,5.2916665 0 0 0 26.458334,0 Z m -2.215369,2.372465 c 0.175139,-0.002 0.347768,0.06303 0.476457,0.192753 l 3.286621,3.286104 -0.05013,-2.502689 c 0.0085,-0.374906 0.318074,-0.684006 0.692981,-0.692464 0.374907,-0.0085 0.675611,0.292237 0.667143,0.667142 l 0.05943,4.196127 c 0.0085,0.175799 -0.06706,0.35025 -0.200505,0.483691 l -0.0072,0.0077 c -0.133446,0.133445 -0.299936,0.199989 -0.484213,0.199989 l -4.188375,-0.06666 c -0.375941,0.0095 -0.668176,-0.28273 -0.668176,-0.66611 0.0085,-0.374908 0.317557,-0.684004 0.692464,-0.692464 L 27.03042,6.843464 23.73553,3.549091 C 23.46862,3.282254 23.4772,2.856077 23.75256,2.580721 23.890237,2.443046 24.06783,2.374447 24.242969,2.372465 Z" /><path
       id="circle8147-3-6-7"
       style="fill:#72bf67;fill-opacity:1;fill-rule:evenodd;stroke-width:2.28426"
       d="M 37.041667,0 A 5.2916665,5.2916665 0 0 0 31.75,5.291667 5.2916665,5.2916665 0 0 0 37.041667,10.583333 5.2916665,5.2916665 0 0 0 42.333333,5.291667 5.2916665,5.2916665 0 0 0 37.041667,0 Z m -2.215369,2.372465 c 0.175139,-0.002 0.347768,0.06303 0.476457,0.192753 l 3.286621,3.286104 -0.05013,-2.502689 c 0.0085,-0.374906 0.318074,-0.684006 0.692981,-0.692464 0.374907,-0.0085 0.675611,0.292237 0.667143,0.667142 l 0.05943,4.196127 c 0.0085,0.175799 -0.06706,0.35025 -0.200505,0.483691 l -0.0072,0.0077 c -0.133446,0.133445 -0.299936,0.199989 -0.484213,0.199989 l -4.188375,-0.06666 c -0.375941,0.0095 -0.668176,-0.28273 -0.668176,-0.66611 0.0085,-0.374908 0.317557,-0.684004 0.692464,-0.692464 l 2.510958,0.05788 -3.29489,-3.294373 c -0.26691,-0.266837 -0.25833,-0.693014 0.01703,-0.96837 0.137677,-0.137675 0.31527,-0.206274 0.490409,-0.208256 z" /><path
       id="circle8147-3-6-7-3"
       style="fill:#7a306c;fill-opacity:1;fill-rule:evenodd;stroke-width:2.28426"
       d="M 47.625001,0 A 5.2916667,5.2916665 0 0 0 42.333333,5.2916671 5.2916667,5.2916665 0 0 0 47.625001,10.583333 5.2916667,5.2916665 0 0 0 52.916667,5.2916671 5.2916667,5.2916665 0 0 0 47.625001,0 Z m -2.21537,2.3724651 c 0.175139,-0.002 0.347768,0.06303 0.476457,0.192753 l 3.286622,3.286104 -0.05013,-2.502689 c 0.0085,-0.374906 0.318074,-0.684006 0.692981,-0.692464 0.374907,-0.0085 0.675611,0.292237 0.667143,0.667142 l 0.05943,4.196127 c 0.0085,0.175799 -0.06706,0.35025 -0.200505,0.483691 l -0.0072,0.0077 c -0.133446,0.133445 -0.299936,0.199989 -0.484213,0.199989 l -4.188376,-0.06666 c -0.375941,0.0095 -0.668176,-0.28273 -0.668176,-0.66611 0.0085,-0.374908 0.317557,-0.684004 0.692464,-0.692464 l 2.510959,0.05788 -3.294891,-3.294373 c -0.26691,-0.266837 -0.25833,-0.693014 0.01703,-0.96837 0.137677,-0.137675 0.31527,-0.206274 0.490409,-0.208256 z" /><path
       id="circle8147-3-6-7-3-6"
       style="fill:#ff0035;fill-opacity:1;fill-rule:evenodd;stroke-width:2.28426"
       d="M 58.208334,0 A 5.2916664,5.2916665 0 0 0 52.916667,5.291667 5.2916664,5.2916665 0 0 0 58.208334,10.583333 5.2916664,5.2916665 0 0 0 63.5,5.291667 5.2916664,5.2916665 0 0 0 58.208334,0 Z m -2.21537,2.372465 c 0.175139,-0.002 0.347768,0.06303 0.476457,0.192753 l 3.286622,3.286104 -0.05013,-2.502689 c 0.0085,-0.374906 0.318074,-0.684006 0.692981,-0.692464 0.374907,-0.0085 0.675611,0.292237 0.667143,0.667142 l 0.05943,4.196127 c 0.0085,0.175799 -0.06706,0.35025 -0.200505,0.483691 l -0.0072,0.0077 c -0.133446,0.133445 -0.299936,0.199989 -0.484213,0.199989 l -4.188376,-0.06666 c -0.375941,0.0095 -0.668176,-0.28273 -0.668176,-0.66611 0.0085,-0.374908 0.317557,-0.684004 0.692464,-0.692464 L 58.78042,6.843464 55.48553,3.549091 C 55.21862,3.282254 55.2272,2.856077 55.50256,2.580721 55.640236,2.443046 55.817829,2.374447 55.992968,2.372465 Z" /></g></svg>
