<?xml version="1.0" encoding="UTF-8" standalone="no"?>
<!-- Created with Inkscape (http://www.inkscape.org/) -->

<svg
   width="480"
   height="800"
   viewBox="0 0 126.99999 211.66665"
   version="1.1"
   id="svg5"
   inkscape:version="1.2 (1:1.2+202206011327+fc4e4096c5)"
   sodipodi:docname="bullets.svg"
   xml:space="preserve"
   xmlns:inkscape="http://www.inkscape.org/namespaces/inkscape"
   xmlns:sodipodi="http://sodipodi.sourceforge.net/DTD/sodipodi-0.dtd"
   xmlns="http://www.w3.org/2000/svg"
   xmlns:svg="http://www.w3.org/2000/svg"><sodipodi:namedview
     id="namedview7"
     pagecolor="#ffffff"
     bordercolor="#999999"
     borderopacity="1"
     inkscape:showpageshadow="0"
     inkscape:pageopacity="0"
     inkscape:pagecheckerboard="true"
     inkscape:deskcolor="#d1d1d1"
     inkscape:document-units="mm"
     showgrid="false"
     inkscape:zoom="3.3663362"
     inkscape:cx="112.73384"
     inkscape:cy="364.93681"
     inkscape:window-width="1600"
     inkscape:window-height="845"
     inkscape:window-x="0"
     inkscape:window-y="0"
     inkscape:window-maximized="1"
     inkscape:current-layer="layer1" /><defs
     id="defs2" /><g
     inkscape:label="Warstwa 1"
     inkscape:groupmode="layer"
     id="layer1"><g
       id="g50705"><g
         id="g24967"
         transform="translate(0,-0.1632843)"><path
           id="path353"
           style="fill:#24a3c4;fill-opacity:1;fill-rule:evenodd;stroke-width:1.61702"
           d="M 116.93837,9.854755 A 29.365309,29.36532 0 0 1 124.50682,29.528567 29.365309,29.36532 0 0 1 95.141256,58.894139 29.365309,29.36532 0 0 1 75.474362,51.318781 29.365309,29.36532 0 0 0 97.264567,61.017451 29.365309,29.36532 0 0 0 126.63013,31.651879 29.365309,29.36532 0 0 0 116.93837,9.854755 Z" /><ellipse
           style="fill:#ffffff;fill-opacity:0.495803;fill-rule:evenodd;stroke-width:1.61702"
           id="path353-3-6"
           cx="95.141273"
           cy="29.528605"
           rx="29.365309"
           ry="29.36532" /></g><g
         aria-label="/01"
         id="text46202"
         style="font-size:9.87778px;line-height:1.25;font-family:Ubuntu;-inkscape-font-specification:'Ubuntu, Normal';fill:#24a3c4;stroke-width:0.264583"><path
           d="M 89.460058,15.061691 H 88.521669 L 91.870236,5.4999999 H 92.78887 Z"
           id="path269" /><path
           d="m 93.045681,9.8067119 q 0,-1.7187337 0.602544,-2.647245 0.612423,-0.9285113 1.689101,-0.9285113 1.076678,0 1.679222,0.9285113 0.612423,0.9285113 0.612423,2.647245 0,1.7187341 -0.612423,2.6472451 -0.602544,0.928511 -1.679222,0.928511 -1.076678,0 -1.689101,-0.928511 -0.602544,-0.928511 -0.602544,-2.6472451 z m 3.615267,0 q 0,-0.5630334 -0.06914,-1.0668002 -0.05927,-0.5037668 -0.217311,-0.8791224 -0.148167,-0.3753557 -0.404989,-0.5926668 -0.256823,-0.227189 -0.632178,-0.227189 -0.375356,0 -0.632178,0.227189 -0.256822,0.2173111 -0.414867,0.5926668 -0.148167,0.3753556 -0.217311,0.8791224 -0.05927,0.5037668 -0.05927,1.0668002 0,0.5630331 0.05927,1.0668001 0.06914,0.503767 0.217311,0.879123 0.158045,0.375355 0.414867,0.602544 0.256822,0.217311 0.632178,0.217311 0.375355,0 0.632178,-0.217311 0.256822,-0.227189 0.404989,-0.602544 0.158044,-0.375356 0.217311,-0.879123 0.06914,-0.503767 0.06914,-1.0668001 z"
           id="path271" /><path
           d="m 99.041485,7.8015226 q 0.563033,-0.2173112 1.096435,-0.5531557 0.5334,-0.3457223 0.9779,-0.8593668 h 0.65193 v 6.8453019 h -0.91863 V 7.6632337 q -0.11853,0.1086555 -0.29633,0.2271889 -0.16793,0.1185334 -0.37536,0.2271889 -0.197556,0.1086556 -0.424745,0.2074334 -0.217311,0.098778 -0.424744,0.1679223 z"
           id="path273" /></g></g><g
       id="g50698"><g
         id="g30288"
         transform="translate(0,-0.04908562)"><path
           id="path353-5"
           style="fill:#e8ac4e;fill-opacity:1;fill-rule:evenodd;stroke-width:1.4061"
           d="M 45.1928,24.976451 A 25.535051,25.535062 0 0 1 51.774055,42.084114 25.535051,25.535062 0 0 1 26.238785,67.619395 25.535051,25.535062 0 0 1 9.1371378,61.032127 25.535051,25.535062 0 0 0 28.085142,69.465753 25.535051,25.535062 0 0 0 53.620413,43.930473 25.535051,25.535062 0 0 0 45.1928,24.976451 Z" /><ellipse
           style="fill:#ffffff;fill-opacity:0.495803;fill-rule:evenodd;stroke-width:1.4061"
           id="path353-3-6-3"
           cx="26.238798"
           cy="42.084148"
           rx="25.535051"
           ry="25.535063" /></g><g
         aria-label="/02"
         id="text46202-2"
         style="font-size:9.87778px;line-height:1.25;font-family:Ubuntu;-inkscape-font-specification:'Ubuntu, Normal';fill:#e8ac4e;stroke-width:0.264583"><path
           d="M 19.821489,31.561692 H 18.8831 l 3.348567,-9.561691 h 0.918634 z"
           id="path276" /><path
           d="m 23.407112,26.306713 q 0,-1.718734 0.602545,-2.647245 0.612422,-0.928511 1.6891,-0.928511 1.076678,0 1.679223,0.928511 0.612422,0.928511 0.612422,2.647245 0,1.718734 -0.612422,2.647245 -0.602545,0.928511 -1.679223,0.928511 -1.076678,0 -1.6891,-0.928511 -0.602545,-0.928511 -0.602545,-2.647245 z m 3.615267,0 q 0,-0.563034 -0.06914,-1.0668 -0.05927,-0.503767 -0.217311,-0.879123 -0.148167,-0.375355 -0.404989,-0.592667 -0.256822,-0.227189 -0.632178,-0.227189 -0.375356,0 -0.632178,0.227189 -0.256822,0.217312 -0.414867,0.592667 -0.148166,0.375356 -0.217311,0.879123 -0.05927,0.503766 -0.05927,1.0668 0,0.563033 0.05927,1.0668 0.06914,0.503767 0.217311,0.879123 0.158045,0.375355 0.414867,0.602544 0.256822,0.217311 0.632178,0.217311 0.375356,0 0.632178,-0.217311 0.256822,-0.227189 0.404989,-0.602544 0.158044,-0.375356 0.217311,-0.879123 0.06914,-0.503767 0.06914,-1.0668 z"
           id="path278" /><path
           d="m 33.097206,24.637368 q 0,0.3556 -0.148167,0.691445 -0.138289,0.325966 -0.375356,0.651933 -0.237066,0.316089 -0.5334,0.632178 -0.296333,0.306211 -0.592667,0.602545 -0.167922,0.167922 -0.395111,0.395111 -0.217311,0.227189 -0.414866,0.474133 -0.197556,0.246945 -0.335845,0.474134 -0.128411,0.227189 -0.128411,0.395111 h 3.151012 v 0.780345 h -4.148668 q -0.0099,-0.05927 -0.0099,-0.118534 0,-0.05927 0,-0.108655 0,-0.464256 0.148167,-0.859367 0.158044,-0.404989 0.404989,-0.760589 0.246944,-0.3556 0.553156,-0.671689 0.306211,-0.316089 0.602544,-0.612423 0.246945,-0.237066 0.464256,-0.464255 0.227189,-0.237067 0.395111,-0.464256 0.1778,-0.237067 0.276578,-0.484011 0.108656,-0.246945 0.108656,-0.523523 0,-0.296333 -0.09878,-0.503766 -0.0889,-0.207434 -0.246945,-0.345723 -0.158044,-0.138289 -0.375355,-0.197555 -0.207434,-0.06914 -0.444501,-0.06914 -0.286455,0 -0.523522,0.07902 -0.237067,0.07902 -0.424744,0.187677 -0.187678,0.09878 -0.316089,0.217311 -0.128411,0.108656 -0.197556,0.167923 l -0.454378,-0.651934 q 0.0889,-0.09878 0.2667,-0.237066 0.1778,-0.148167 0.424745,-0.276578 0.246944,-0.128411 0.553155,-0.217311 0.306212,-0.0889 0.661812,-0.0889 1.076678,0 1.610078,0.503766 0.543278,0.493889 0.543278,1.402645 z"
           id="path280" /></g></g><g
       id="g43194"
       transform="matrix(1.0498688,0,0,1.0498688,-3.0911161,-6.1571808)"><path
         id="path353-5-6"
         style="fill:#496d89;fill-opacity:1;fill-rule:evenodd;stroke-width:1.26549"
         d="m 54.400166,83.427311 a 22.981546,22.981555 0 0 1 5.92313,15.396896 22.981546,22.981555 0 0 1 -22.981744,22.981753 22.981546,22.981555 0 0 1 -15.391482,-5.92854 22.981546,22.981555 0 0 0 17.053204,7.59026 22.981546,22.981555 0 0 0 22.981744,-22.98175 22.981546,22.981555 0 0 0 -7.584852,-17.058619 z" /><ellipse
         style="fill:#ffffff;fill-opacity:0.495803;fill-rule:evenodd;stroke-width:1.26549"
         id="path353-3-6-3-2"
         cx="37.341564"
         cy="98.824234"
         rx="22.981546"
         ry="22.981554" /></g><g
       aria-label="/03"
       id="text46202-2-3"
       style="font-size:9.87778px;line-height:1.25;font-family:Ubuntu;-inkscape-font-specification:'Ubuntu, Normal';fill:#496d89;stroke-width:0.264583"
       transform="translate(0,-2.6458334)"><path
         d="m 30.836864,91.265126 h -0.938389 l 3.348568,-9.561691 h 0.918633 z"
         id="path283" /><path
         d="m 34.422487,86.010147 q 0,-1.718734 0.602545,-2.647245 0.612422,-0.928511 1.6891,-0.928511 1.076678,0 1.679223,0.928511 0.612422,0.928511 0.612422,2.647245 0,1.718734 -0.612422,2.647245 -0.602545,0.928511 -1.679223,0.928511 -1.076678,0 -1.6891,-0.928511 -0.602545,-0.928511 -0.602545,-2.647245 z m 3.615268,0 q 0,-0.563034 -0.06914,-1.0668 -0.05927,-0.503767 -0.217311,-0.879123 -0.148167,-0.375355 -0.404989,-0.592667 -0.256822,-0.227189 -0.632178,-0.227189 -0.375356,0 -0.632178,0.227189 -0.256822,0.217312 -0.414867,0.592667 -0.148166,0.375356 -0.217311,0.879123 -0.05927,0.503766 -0.05927,1.0668 0,0.563033 0.05927,1.0668 0.06914,0.503767 0.217311,0.879123 0.158045,0.375355 0.414867,0.602544 0.256822,0.217311 0.632178,0.217311 0.375356,0 0.632178,-0.217311 0.256822,-0.227189 0.404989,-0.602544 0.158044,-0.375356 0.217311,-0.879123 0.06914,-0.503767 0.06914,-1.0668 z"
         id="path285" /><path
         d="m 41.732036,88.766047 q 0.879122,0 1.254478,-0.345722 0.385233,-0.345722 0.385233,-0.928511 0,-0.375356 -0.158044,-0.632178 -0.158045,-0.256822 -0.414867,-0.404989 -0.256822,-0.158045 -0.602544,-0.217311 -0.335845,-0.06915 -0.691445,-0.06915 H 41.26778 V 85.41748 h 0.325967 q 0.246944,0 0.503767,-0.04939 0.2667,-0.04939 0.484011,-0.1778 0.217311,-0.128411 0.3556,-0.345722 0.138289,-0.227189 0.138289,-0.563034 0,-0.276577 -0.09878,-0.474133 -0.09878,-0.197556 -0.2667,-0.325967 -0.158044,-0.128411 -0.375356,-0.1778 -0.207433,-0.05927 -0.4445,-0.05927 -0.474133,0 -0.809978,0.138289 -0.325966,0.138289 -0.553155,0.286456 l -0.3556,-0.701322 q 0.118533,-0.07902 0.296333,-0.167923 0.187678,-0.09878 0.414867,-0.1778 0.227189,-0.07902 0.484011,-0.128411 0.2667,-0.05927 0.553156,-0.05927 0.543278,0 0.938389,0.138288 0.395111,0.128412 0.651933,0.375356 0.256823,0.237067 0.385234,0.572911 0.128411,0.325967 0.128411,0.7112 0,0.533401 -0.306211,0.918634 -0.306212,0.375356 -0.740834,0.572911 0.2667,0.07902 0.513645,0.227189 0.246944,0.148167 0.424744,0.375356 0.187678,0.227189 0.296334,0.523522 0.118533,0.296334 0.118533,0.661811 0,0.444501 -0.158044,0.829734 -0.148167,0.375356 -0.474134,0.651933 -0.316089,0.276578 -0.8001,0.434623 -0.484011,0.158044 -1.145823,0.158044 -0.256822,0 -0.5334,-0.03951 -0.2667,-0.03951 -0.503766,-0.09878 -0.237067,-0.05927 -0.414867,-0.118533 -0.1778,-0.05927 -0.256822,-0.09878 l 0.1778,-0.8001 q 0.167922,0.07902 0.553155,0.207433 0.395111,0.128411 0.958145,0.128411 z"
         id="path287" /></g><g
       id="g50719"><g
         id="g5503-7-5-9"
         transform="matrix(1.0467539,0,0,1.0467543,-0.18773961,78.275448)"><path
           id="path353-5-6-1"
           style="fill:#72bf67;fill-rule:evenodd;stroke-width:1.20897"
           d="M 107.66423,17.658354 A 21.955061,21.955061 0 0 1 113.3228,32.367533 21.955061,21.955061 0 0 1 91.36755,54.322782 21.955061,21.955061 0 0 1 76.663538,48.659045 21.955061,21.955061 0 0 0 92.95505,55.910282 21.955061,21.955061 0 0 0 114.9103,33.955033 21.955061,21.955061 0 0 0 107.66423,17.658354 Z" /><circle
           style="fill:#ffffff;fill-opacity:0.495803;fill-rule:evenodd;stroke-width:1.20897"
           id="path353-3-6-3-2-2"
           cx="91.367561"
           cy="32.367561"
           r="21.955061" /></g><g
         aria-label="/04"
         id="text46202-2-3-2"
         style="font-size:9.87778px;line-height:1.25;font-family:Ubuntu;-inkscape-font-specification:'Ubuntu, Normal';fill:#72bf67;stroke-width:0.264583"><path
           d="m 88.783926,104.38477 h -0.938389 l 3.348567,-9.561691 h 0.918634 z"
           id="path344" /><path
           d="m 92.369549,99.129791 q 0,-1.718734 0.602544,-2.647245 0.612423,-0.928511 1.689101,-0.928511 1.076678,0 1.679222,0.928511 0.612423,0.928511 0.612423,2.647245 0,1.718729 -0.612423,2.647249 -0.602544,0.92851 -1.679222,0.92851 -1.076678,0 -1.689101,-0.92851 -0.602544,-0.92852 -0.602544,-2.647249 z m 3.615267,0 q 0,-0.563033 -0.06914,-1.0668 -0.05927,-0.503767 -0.217311,-0.879123 -0.148167,-0.375355 -0.404989,-0.592666 -0.256823,-0.227189 -0.632178,-0.227189 -0.375356,0 -0.632178,0.227189 -0.256823,0.217311 -0.414867,0.592666 -0.148167,0.375356 -0.217311,0.879123 -0.05927,0.503767 -0.05927,1.0668 0,0.563033 0.05927,1.066799 0.06914,0.50377 0.217311,0.87912 0.158044,0.37536 0.414867,0.60255 0.256822,0.21731 0.632178,0.21731 0.375355,0 0.632178,-0.21731 0.256822,-0.22719 0.404989,-0.60255 0.158044,-0.37535 0.217311,-0.87912 0.06914,-0.503766 0.06914,-1.066799 z"
           id="path346" /><path
           d="m 97.84183,100.18671 q 0.187678,-0.434619 0.513645,-1.00753 0.325967,-0.582789 0.730956,-1.195211 0.414866,-0.612423 0.879122,-1.20509 0.474137,-0.592666 0.948267,-1.0668 h 0.87912 v 4.346221 h 0.80998 v 0.75071 h -0.80998 v 1.74837 h -0.889 v -1.74837 h -3.06211 z m 3.06211,-3.388075 q -0.29633,0.316089 -0.60254,0.7112 -0.29634,0.385234 -0.582791,0.809978 -0.286456,0.424745 -0.543278,0.869245 -0.246945,0.4445 -0.4445,0.869242 h 2.173109 z"
           id="path348" /></g></g><g
       id="g50726"><g
         id="g43186"><path
           id="path353-5-6-0"
           style="fill:#7a306c;fill-rule:evenodd;stroke-width:1.26549;fill-opacity:1"
           d="m 48.785134,146.36425 a 22.981546,22.981555 0 0 1 5.92313,15.39689 22.981546,22.981555 0 0 1 -22.981744,22.98176 22.981546,22.981555 0 0 1 -15.391482,-5.92855 22.981546,22.981555 0 0 0 17.053204,7.59027 22.981546,22.981555 0 0 0 22.981744,-22.98175 22.981546,22.981555 0 0 0 -7.584852,-17.05862 z" /><ellipse
           style="fill:#ffffff;fill-opacity:0.495803;fill-rule:evenodd;stroke-width:1.26549"
           id="path353-3-6-3-2-9"
           cx="31.726532"
           cy="161.76117"
           rx="22.981546"
           ry="22.981554" /></g><g
         aria-label="/05"
         id="text46202-2-3-2-6"
         style="font-size:9.87778px;line-height:1.25;font-family:Ubuntu;-inkscape-font-specification:'Ubuntu, Normal';fill:#7a306c;stroke-width:0.264583"><path
           d="m 25.211956,153.73887 h -0.938389 l 3.348567,-9.56169 h 0.918634 z"
           id="path351" /><path
           d="m 28.797579,148.48389 q 0,-1.71873 0.602544,-2.64724 0.612423,-0.92851 1.689101,-0.92851 1.076678,0 1.679222,0.92851 0.612423,0.92851 0.612423,2.64724 0,1.71874 -0.612423,2.64725 -0.602544,0.92851 -1.679222,0.92851 -1.076678,0 -1.689101,-0.92851 -0.602544,-0.92851 -0.602544,-2.64725 z m 3.615267,0 q 0,-0.56303 -0.06914,-1.0668 -0.05927,-0.50376 -0.217311,-0.87912 -0.148167,-0.37535 -0.404989,-0.59267 -0.256823,-0.22718 -0.632178,-0.22718 -0.375356,0 -0.632178,0.22718 -0.256823,0.21732 -0.414867,0.59267 -0.148167,0.37536 -0.217311,0.87912 -0.05927,0.50377 -0.05927,1.0668 0,0.56304 0.05927,1.0668 0.06914,0.50377 0.217311,0.87913 0.158044,0.37535 0.414867,0.60254 0.256822,0.21731 0.632178,0.21731 0.375355,0 0.632178,-0.21731 0.256822,-0.22719 0.404989,-0.60254 0.158044,-0.37536 0.217311,-0.87913 0.06914,-0.50376 0.06914,-1.0668 z"
           id="path354" /><path
           d="m 35.840427,147.70355 q 1.491545,0.0593 2.18299,0.65193 0.701322,0.59267 0.701322,1.61008 0,0.45438 -0.158044,0.83961 -0.148167,0.38524 -0.464256,0.66181 -0.306211,0.27658 -0.780345,0.43463 -0.474133,0.15804 -1.126067,0.15804 -0.256822,0 -0.523522,-0.0395 -0.2667,-0.0395 -0.493889,-0.0988 -0.227189,-0.0593 -0.404989,-0.11853 -0.1778,-0.0593 -0.256822,-0.0988 l 0.1778,-0.8001 q 0.167922,0.079 0.543278,0.20743 0.385233,0.12841 0.938389,0.12841 0.4445,0 0.740833,-0.0988 0.306212,-0.0988 0.493889,-0.2667 0.187678,-0.16793 0.2667,-0.38524 0.0889,-0.22719 0.0889,-0.47413 0,-0.37536 -0.128411,-0.66181 -0.128411,-0.29633 -0.454378,-0.49389 -0.325966,-0.19756 -0.869244,-0.29633 -0.543278,-0.10866 -1.373012,-0.10866 0.05927,-0.48401 0.0889,-0.90875 0.03951,-0.42475 0.06915,-0.82974 0.02963,-0.40499 0.04939,-0.8001 0.01975,-0.40499 0.03951,-0.84949 h 3.299178 v 0.78035 h -2.499078 q -0.0099,0.14816 -0.02963,0.40499 -0.01976,0.24694 -0.03951,0.52352 -0.01976,0.2667 -0.03951,0.52352 -0.01976,0.25682 -0.03951,0.40499 z"
           id="path356" /></g></g><g
       id="g50733"><g
         id="g43190"><path
           id="path353-5-6-6"
           style="fill:#ff0035;fill-rule:evenodd;stroke-width:1.26549;fill-opacity:1"
           d="m 104.39866,163.5335 a 22.981546,22.981555 0 0 1 5.92313,15.39689 22.981546,22.981555 0 0 1 -22.981741,22.98176 22.981546,22.981555 0 0 1 -15.391482,-5.92855 22.981546,22.981555 0 0 0 17.053204,7.59027 22.981546,22.981555 0 0 0 22.981739,-22.98175 22.981546,22.981555 0 0 0 -7.58485,-17.05862 z" /><ellipse
           style="fill:#ffffff;fill-opacity:0.495803;fill-rule:evenodd;stroke-width:1.26549"
           id="path353-3-6-3-2-0"
           cx="87.340057"
           cy="178.93042"
           rx="22.981546"
           ry="22.981554" /></g><g
         aria-label="/06"
         id="text46202-2-3-2-7"
         style="font-size:9.87778px;line-height:1.25;font-family:Ubuntu;-inkscape-font-specification:'Ubuntu, Normal';fill:#ff0035;stroke-width:0.264583"><path
           d="m 80.716825,171.31427 h -0.938389 l 3.348568,-9.56169 h 0.918633 z"
           id="path359" /><path
           d="m 84.302448,166.05929 q 0,-1.71874 0.602545,-2.64725 0.612422,-0.92851 1.6891,-0.92851 1.076678,0 1.679223,0.92851 0.612422,0.92851 0.612422,2.64725 0,1.71873 -0.612422,2.64724 -0.602545,0.92851 -1.679223,0.92851 -1.076678,0 -1.6891,-0.92851 -0.602545,-0.92851 -0.602545,-2.64724 z m 3.615268,0 q 0,-0.56304 -0.06914,-1.0668 -0.05927,-0.50377 -0.217311,-0.87912 -0.148167,-0.37536 -0.404989,-0.59267 -0.256822,-0.22719 -0.632178,-0.22719 -0.375356,0 -0.632178,0.22719 -0.256822,0.21731 -0.414867,0.59267 -0.148166,0.37535 -0.217311,0.87912 -0.05927,0.50376 -0.05927,1.0668 0,0.56303 0.05927,1.0668 0.06915,0.50376 0.217311,0.87912 0.158045,0.37536 0.414867,0.60255 0.256822,0.21731 0.632178,0.21731 0.375356,0 0.632178,-0.21731 0.256822,-0.22719 0.404989,-0.60255 0.158045,-0.37536 0.217311,-0.87912 0.06914,-0.50377 0.06914,-1.0668 z"
           id="path361" /><path
           d="m 90.001919,166.74085 q 0,-0.99765 0.276578,-1.75824 0.276577,-0.77047 0.780344,-1.29399 0.513645,-0.52352 1.234723,-0.79022 0.730955,-0.27658 1.639711,-0.28646 l 0.06915,0.77047 q -0.582789,0.01 -1.066801,0.12841 -0.474133,0.11853 -0.849489,0.37536 -0.375355,0.25682 -0.632178,0.67169 -0.256822,0.40498 -0.385233,1.00753 0.256822,-0.11853 0.572911,-0.19756 0.325967,-0.079 0.671689,-0.079 0.582789,0 0.987778,0.1778 0.404989,0.1778 0.661812,0.47413 0.256822,0.28646 0.365477,0.67169 0.118534,0.37536 0.118534,0.79023 0,0.37535 -0.128411,0.77046 -0.128412,0.39511 -0.395112,0.72108 -0.256822,0.32597 -0.661811,0.5334 -0.404989,0.20743 -0.958144,0.20743 -1.126067,0 -1.718734,-0.77046 -0.582789,-0.77047 -0.582789,-2.12373 z m 2.212622,-0.70132 q -0.345722,0 -0.642055,0.0691 -0.296334,0.0593 -0.592667,0.18767 -0.0099,0.10866 -0.01976,0.22719 0,0.10866 0,0.21731 0,0.43463 0.05927,0.81986 0.05927,0.38523 0.207433,0.68157 0.158045,0.28645 0.414867,0.46425 0.256823,0.16793 0.651934,0.16793 0.325966,0 0.553155,-0.13829 0.227189,-0.13829 0.375356,-0.3556 0.148167,-0.21732 0.207433,-0.46426 0.06915,-0.25682 0.06915,-0.49389 0,-0.67169 -0.325967,-1.02729 -0.316089,-0.3556 -0.958145,-0.3556 z"
           id="path363" /></g></g></g></svg>
